<svg width="200" height="200" viewBox="0 0 200 200" fill="none" xmlns="http://www.w3.org/2000/svg">
<rect width="200" height="200" rx="44" fill="#1B24FF"/>
<path d="M130.793 56.1704L114.225 59.0917C103.083 61.0563 97.5125 62.0386 94.6615 66.1103C91.8105 70.1819 92.7928 75.7528 94.7574 86.8947L99.6742 114.779C101.418 124.667 102.29 129.611 105.645 132.42C106.173 132.862 106.739 133.258 107.335 133.603C111.122 135.796 116.066 134.924 125.954 133.18L129.558 132.545C136.015 131.406 139.243 130.837 141.505 129.173C143.622 127.615 145.168 125.406 145.908 122.885C146.699 120.189 146.129 116.961 144.991 110.505L144.562 108.071C144.488 107.654 144.451 107.445 144.408 107.272C143.802 104.861 141.517 103.261 139.045 103.516C138.867 103.535 138.658 103.572 138.241 103.645L135.733 104.087C129.996 105.099 124.526 101.269 123.515 95.5321C122.503 89.7958 126.334 84.3255 132.07 83.3141L140.106 81.8971C142.673 81.4445 143.956 81.2182 144.868 80.576C145.822 79.9044 146.511 78.9205 146.816 77.7946C147.108 76.718 146.881 75.4345 146.429 72.8675L145.272 66.3092C145.192 65.8529 145.151 65.6247 145.111 65.4329C143.81 59.2448 137.931 55.128 131.671 56.022C131.477 56.0498 131.249 56.09 130.793 56.1704Z" fill="white"/>
<path opacity="0.8" d="M69.3329 143.164L117.062 134.749L104.038 60.8881L69.5269 66.9734C62.1709 68.2705 58.4928 68.919 56.2395 71.241C55.4972 72.0059 54.882 72.8845 54.4171 73.8436C53.0058 76.7553 53.6544 80.4333 54.9515 87.7894L55.4376 90.5464C55.6288 91.6306 55.7244 92.1727 55.889 92.6093C56.6158 94.5365 58.45 95.8208 60.5095 95.8446C60.9761 95.85 61.5182 95.7544 62.6024 95.5633L64.3975 95.2467C64.8975 95.1586 65.1475 95.1145 65.3605 95.0863C70.5059 94.4053 75.317 97.7741 76.4369 102.842C76.4833 103.052 76.5274 103.302 76.6155 103.802C76.7037 104.302 76.7478 104.552 76.776 104.765C77.457 109.91 74.0882 114.721 69.0201 115.841C68.8104 115.888 68.5604 115.932 68.0604 116.02L61.0446 117.257C57.5066 117.881 55.7376 118.193 54.6299 119.282C54.1939 119.711 53.8403 120.216 53.5865 120.772C52.9419 122.186 53.2538 123.955 53.8776 127.493L54.8533 133.026C55.2566 135.313 55.4582 136.456 55.815 137.374C57.2808 141.144 60.8737 143.66 64.9179 143.748C65.9022 143.769 67.0458 143.568 69.3329 143.164Z" fill="white"/>
</svg>
