<svg width="168" height="33" viewBox="0 0 168 33" fill="none" xmlns="http://www.w3.org/2000/svg">
<path d="M27.756 32.288H24.372L19.08 17.996L18.684 16.808L17.496 13.352C17.136 12.32 16.812 11.564 16.524 11.084C16.26 10.58 15.936 10.256 15.552 10.112C15.192 9.968 14.676 9.896 14.004 9.896V8.348H25.236V9.896C23.46 9.896 22.572 10.364 22.572 11.3C22.572 11.564 22.632 11.864 22.752 12.2C22.872 12.536 22.992 12.908 23.112 13.316L26.532 22.532L27.432 25.448H27.684L31.392 14.144C31.392 14.144 31.428 14.012 31.5 13.748C31.596 13.484 31.68 13.16 31.752 12.776C31.848 12.392 31.896 12.044 31.896 11.732C31.896 10.916 31.656 10.412 31.176 10.22C30.696 10.004 30.108 9.896 29.412 9.896V8.348H37.512V9.896C36.696 9.896 36.084 10.088 35.676 10.472C35.292 10.856 34.932 11.504 34.596 12.416L27.756 32.288ZM14.184 32.288H11.016L3.348 13.424C2.844 12.128 2.364 11.24 1.908 10.76C1.476 10.28 0.84 9.992 0 9.896V8.348H11.124V9.896C10.236 9.896 9.636 9.992 9.324 10.184C9.012 10.352 8.856 10.628 8.856 11.012C8.856 11.468 8.976 12.044 9.216 12.74L13.248 22.604L14.184 25.448H14.436L18.54 15.26L20.124 19.292H19.332L14.184 32.288ZM44.6209 32.396C42.8689 32.396 41.3809 32.06 40.1569 31.388C38.9569 30.716 38.0329 29.72 37.3849 28.4C36.7609 27.08 36.4489 25.472 36.4489 23.576C36.4489 21.512 36.8449 19.82 37.6369 18.5C38.4289 17.156 39.4729 16.16 40.7689 15.512C42.0889 14.864 43.5289 14.54 45.0889 14.54C47.3689 14.54 49.1929 15.236 50.5609 16.628C51.9529 17.996 52.6609 20.036 52.6849 22.748H41.3089L41.2729 21.056H47.0329C47.0329 20.072 46.9609 19.208 46.8169 18.464C46.6729 17.72 46.4209 17.144 46.0609 16.736C45.7249 16.328 45.2329 16.124 44.5849 16.124C43.4809 16.124 42.7249 16.604 42.3169 17.564C41.9089 18.524 41.7049 20.072 41.7049 22.208C41.7049 23.792 41.8849 25.04 42.2449 25.952C42.6049 26.864 43.1449 27.524 43.8649 27.932C44.5849 28.316 45.4729 28.508 46.5289 28.508C47.4649 28.508 48.2569 28.412 48.9049 28.22C49.5769 28.028 50.1529 27.752 50.6329 27.392C51.1369 27.008 51.5809 26.576 51.9649 26.096L52.9009 26.744C52.5169 27.44 52.1089 28.124 51.6769 28.796C51.2689 29.468 50.7649 30.08 50.1649 30.632C49.5889 31.16 48.8569 31.592 47.9689 31.928C47.0809 32.24 45.9649 32.396 44.6209 32.396ZM61.1322 32.36C59.7642 32.36 58.6242 31.988 57.7122 31.244C56.8002 30.476 56.1162 29.468 55.6602 28.22C55.2042 26.948 54.9762 25.544 54.9762 24.008C54.9762 21.8 55.3362 20 56.0562 18.608C56.8002 17.216 57.7842 16.196 59.0082 15.548C60.2562 14.876 61.6362 14.54 63.1482 14.54C63.7002 14.54 64.2642 14.6 64.8402 14.72C65.4402 14.84 66.0402 15.044 66.6402 15.332H66.7482V11.228C66.7482 10.436 66.6522 9.932 66.4602 9.716C66.2922 9.476 65.8602 9.356 65.1642 9.356C64.9962 9.356 64.7802 9.368 64.5162 9.392C64.2522 9.392 64.1202 9.392 64.1202 9.392V7.844L69.8802 6.584H71.8962V27.896C71.8962 28.808 72.0402 29.408 72.3282 29.696C72.6162 29.96 73.0962 30.092 73.7682 30.092H74.5242V31.568L68.0802 32.18H66.8202V29.876H66.6762C66.0042 30.476 65.2122 31.04 64.3002 31.568C63.3882 32.096 62.3322 32.36 61.1322 32.36ZM63.4362 29.372C64.1322 29.372 64.7082 29.264 65.1642 29.048C65.6202 28.808 66.1482 28.484 66.7482 28.076V19.364C66.5802 18.716 66.2442 18.104 65.7402 17.528C65.2362 16.952 64.4922 16.664 63.5082 16.664C62.5962 16.664 61.8762 17.168 61.3482 18.176C60.8202 19.184 60.5562 20.768 60.5562 22.928C60.5562 25.184 60.7962 26.828 61.2762 27.86C61.7562 28.868 62.4762 29.372 63.4362 29.372ZM86.4329 32H75.7769V30.56C76.5689 30.56 77.1569 30.5 77.5409 30.38C77.9249 30.236 78.1769 29.984 78.2969 29.624C78.4409 29.24 78.5129 28.712 78.5129 28.04V18.86C78.5129 18.044 78.3449 17.552 78.0089 17.384C77.6729 17.192 77.2289 17.096 76.6769 17.096C76.4369 17.096 76.2209 17.108 76.0289 17.132C75.8369 17.156 75.7409 17.168 75.7409 17.168V15.656L81.1409 14.648H83.6609V27.932C83.6609 28.628 83.7209 29.168 83.8409 29.552C83.9849 29.936 84.2489 30.2 84.6329 30.344C85.0409 30.488 85.6409 30.56 86.4329 30.56V32ZM80.9609 12.38C80.0729 12.38 79.3649 12.128 78.8369 11.624C78.3329 11.096 78.0809 10.412 78.0809 9.572C78.0809 8.732 78.3329 8.06 78.8369 7.556C79.3409 7.028 80.0489 6.764 80.9609 6.764C81.9209 6.764 82.6409 7.016 83.1209 7.52C83.6249 8.024 83.8769 8.696 83.8769 9.536C83.8769 10.4 83.6249 11.096 83.1209 11.624C82.6409 12.128 81.9209 12.38 80.9609 12.38ZM109.585 32H99.5766V30.56C100.297 30.56 100.825 30.488 101.161 30.344C101.497 30.176 101.713 29.912 101.809 29.552C101.905 29.168 101.953 28.64 101.953 27.968V22.352C101.953 21.224 101.845 20.348 101.629 19.724C101.413 19.076 101.089 18.632 100.657 18.392C100.225 18.128 99.6846 17.996 99.0366 17.996C98.4846 17.996 97.9926 18.08 97.5606 18.248C97.1286 18.416 96.7206 18.644 96.3366 18.932C95.9526 19.22 95.5566 19.532 95.1486 19.868L94.9326 17.6H95.5806C96.4926 16.688 97.3686 15.956 98.2086 15.404C99.0726 14.828 100.045 14.54 101.125 14.54C103.021 14.54 104.485 15.116 105.517 16.268C106.573 17.42 107.101 19.184 107.101 21.56V27.968C107.101 28.616 107.161 29.132 107.281 29.516C107.401 29.9 107.641 30.176 108.001 30.344C108.361 30.488 108.889 30.56 109.585 30.56V32ZM98.1006 32H87.8766V30.56C88.6686 30.56 89.2326 30.488 89.5686 30.344C89.9286 30.176 90.1446 29.9 90.2166 29.516C90.3126 29.132 90.3606 28.616 90.3606 27.968V18.716C90.3606 18.044 90.2406 17.612 90.0006 17.42C89.7606 17.204 89.3886 17.096 88.8846 17.096C88.5726 17.096 88.3326 17.108 88.1646 17.132C87.9966 17.156 87.9126 17.168 87.9126 17.168V15.692L93.4566 14.648H95.4366V18.104L95.5446 19.04V27.968C95.5446 28.616 95.5926 29.132 95.6886 29.516C95.7846 29.9 96.0126 30.176 96.3726 30.344C96.7326 30.488 97.3086 30.56 98.1006 30.56V32ZM148.52 27.968L149.42 28.976C148.94 29.624 148.436 30.224 147.908 30.776C147.38 31.304 146.732 31.724 145.964 32.036C145.196 32.348 144.176 32.504 142.904 32.504C141.512 32.504 140.456 32.12 139.736 31.352C139.04 30.584 138.692 29.168 138.692 27.104V17.348H136.424V15.836C137.432 15.212 138.38 14.444 139.268 13.532C140.18 12.596 140.996 11.372 141.716 9.86H143.84V15.152H148.34V17.348H143.84V25.844C143.84 27.164 143.972 28.052 144.236 28.508C144.5 28.94 144.968 29.156 145.64 29.156C146.336 29.156 146.876 29.048 147.26 28.832C147.668 28.616 148.088 28.328 148.52 27.968ZM158.562 32.396C156.81 32.396 155.322 32.06 154.098 31.388C152.898 30.716 151.974 29.72 151.326 28.4C150.702 27.08 150.39 25.472 150.39 23.576C150.39 21.512 150.786 19.82 151.578 18.5C152.37 17.156 153.414 16.16 154.71 15.512C156.03 14.864 157.47 14.54 159.03 14.54C161.31 14.54 163.134 15.236 164.502 16.628C165.894 17.996 166.602 20.036 166.626 22.748H155.25L155.214 21.056H160.974C160.974 20.072 160.902 19.208 160.758 18.464C160.614 17.72 160.362 17.144 160.002 16.736C159.666 16.328 159.174 16.124 158.526 16.124C157.422 16.124 156.666 16.604 156.258 17.564C155.85 18.524 155.646 20.072 155.646 22.208C155.646 23.792 155.826 25.04 156.186 25.952C156.546 26.864 157.086 27.524 157.806 27.932C158.526 28.316 159.414 28.508 160.47 28.508C161.406 28.508 162.198 28.412 162.846 28.22C163.518 28.028 164.094 27.752 164.574 27.392C165.078 27.008 165.522 26.576 165.906 26.096L166.842 26.744C166.458 27.44 166.05 28.124 165.618 28.796C165.21 29.468 164.706 30.08 164.106 30.632C163.53 31.16 162.798 31.592 161.91 31.928C161.022 32.24 159.906 32.396 158.562 32.396Z" fill="#212121"/>
<path d="M130.995 22.2865C131.14 27.0146 126.412 30.1265 123.276 31.9357C126.331 32.2172 133.149 31.9357 134.372 23.3721C135.434 15.9422 127.256 12.9991 125.568 14.8687C127.337 15.7331 130.85 17.5584 130.995 22.2865Z" fill="#212121"/>
<path d="M111.456 22.2865C111.6 14.5671 117.788 14.1249 120.864 14.8687C118.049 15.3511 112.951 17.9202 115.074 24.337C117.197 30.7537 122.954 29.7044 125.568 28.3776C123.216 35.1924 111.275 31.9357 111.456 22.2865Z" fill="#212121"/>
<path d="M122.311 25.6637C128.1 23.4927 125.366 18.9696 123.276 16.9794C125.157 16.2558 130.995 20.1758 126.713 25.6637C122.432 31.1517 117.305 25.6637 117.305 23.3721C116.726 17.5825 120.401 16.698 122.311 16.9794C118.391 19.4998 118.753 25.6637 122.311 25.6637Z" fill="#212121"/>
<path d="M123.276 14.0646C125.561 12.912 130.304 9.88325 130.995 6.98848C131.86 3.37002 128.08 0.555665 123.979 4.8174C124.021 4.32622 124.184 3.68981 124.524 3.07609C124.401 2.14646 123.707 0.8581 121.912 2.81344C122.499 3.37965 122.977 4.06 123.276 4.8174C121.741 3.28961 118.093 0.90946 115.778 3.61125C113.462 6.31303 119.168 11.7059 122.311 14.0646C119.027 12.9388 112.24 8.72936 113.285 4.0334C114.284 -0.453005 118.865 0.35392 121.451 2.409C121.986 1.33582 123.477 -0.14705 125.304 2.06608C126.138 1.28136 127.431 0.758255 129.367 1.03813C134.372 1.76182 135.096 11.1497 123.276 14.0646Z" fill="#212121"/>
<path d="M128.161 4.75709C125.827 4.25818 124.026 9.49444 123.537 12.0744C123.47 9.86314 120.761 4.61774 118.672 4.51586C115.376 4.35504 118.083 9.01883 120.24 11.6322C113.848 6.36529 115.496 3.18909 118.753 3.02827C121.168 2.90902 122.802 5.8433 123.444 7.64965C123.325 5.93066 126.88 1.54227 129.528 3.71176C132.439 6.09704 129.528 9.46109 125.668 11.8734C127.346 10.3442 131.078 5.38073 128.161 4.75709Z" fill="#212121"/>
</svg>
